# xmcd
#
# Track frame offsets:
#	150
#	13878
#	31675
#	47910
#	87547
#	121784
#
# Disc length: 2093 seconds
#
# Revision: 0
# Processed by: cddbd v1.5.2PL0 Copyright (c) Steve Scherf et al.
# Submitted via: dBpowerAMP V4.0
#
DISCID=44082b06
DTITLE=LeAnn Rimes - Can't Fight The Moonlight Single
DYEAR=2000
DGENRE=Single
TTITLE0=Can't Fight The Moonlight
TTITLE1=But I Do Love You
TTITLE2=Can't Fight The Moonlight (Graham Stack Radio Edit)
TTITLE3=Can't Fight The Moonlight (Thunderpuss Club Mix)
TTITLE4=Can't Fight The Moonlight (Sharp Club Vocal Remix)
TTITLE5=Can't Fight The Moonlight (Almighty Mix)
EXTD=
EXTT0=
EXTT1=
EXTT2=
EXTT3=
EXTT4=
EXTT5=
PLAYORDER=
